<svg version="1.1" xmlns="http://www.w3.org/2000/svg" viewBox="0 0 1620.8764343261719 407.552734375" width="1620.8764343261719" height="407.552734375">
  <!-- svg-source:excalidraw -->
  
  <defs>
    <style class="style-fonts">
      @font-face {
        font-family: "Virgil";
        src: url("https://file%2B.vscode-resource.vscode-cdn.net/Users/patrick/.vscode-oss/extensions/pomdtr.excalidraw-editor-3.7.4-universal/public//dist/excalidraw-assets/Virgil.woff2");
      }
      @font-face {
        font-family: "Cascadia";
        src: url("https://file%2B.vscode-resource.vscode-cdn.net/Users/patrick/.vscode-oss/extensions/pomdtr.excalidraw-editor-3.7.4-universal/public//dist/excalidraw-assets/Cascadia.woff2");
      }
      @font-face {
        font-family: "Assistant";
        src: url("https://file%2B.vscode-resource.vscode-cdn.net/Users/patrick/.vscode-oss/extensions/pomdtr.excalidraw-editor-3.7.4-universal/public//dist/excalidraw-assets/Assistant-Regular.woff2");
      }
    </style>
    
  </defs>
  <rect x="0" y="0" width="1620.8764343261719" height="407.552734375" fill="#ffffff"></rect><g stroke-linecap="round" transform="translate(43.8302001953125 71.61328125) rotate(0 266.013671875 29.009765625)"><path d="M14.5 0 C140.8 0.69, 267.43 0.13, 517.52 0 M14.5 0 C201.88 0.3, 388.94 0.55, 517.52 0 M517.52 0 C527.38 1.84, 530.18 6.37, 532.03 14.5 M517.52 0 C528.02 2.27, 533.4 2.94, 532.03 14.5 M532.03 14.5 C533.21 26.09, 530.19 35.42, 532.03 43.51 M532.03 14.5 C531.31 21.65, 531.43 27.15, 532.03 43.51 M532.03 43.51 C532.65 55.1, 526.04 57.81, 517.52 58.02 M532.03 43.51 C532.11 52.38, 528.93 58.6, 517.52 58.02 M517.52 58.02 C372.57 60.16, 227.16 60.44, 14.5 58.02 M517.52 58.02 C385.86 57.79, 254.9 57.97, 14.5 58.02 M14.5 58.02 C2.84 57.6, -1.5 52.94, 0 43.51 M14.5 58.02 C3.63 59.74, -1.41 53.67, 0 43.51 M0 43.51 C0.51 33.13, -0.34 20.63, 0 14.5 M0 43.51 C-0.39 37.75, 1.13 31.42, 0 14.5 M0 14.5 C0.41 3.76, 3.29 0.79, 14.5 0 M0 14.5 C-0.7 3.4, 6.19 0.8, 14.5 0" stroke="#1e1e1e" stroke-width="2" fill="none"></path></g><g transform="translate(198.19395446777344 88.123046875) rotate(0 111.64991760253906 12.5)"><text x="111.64991760253906" y="0" font-family="Virgil, Segoe UI Emoji" font-size="20px" fill="#1e1e1e" text-anchor="middle" style="white-space: pre;" direction="ltr" dominant-baseline="text-before-edge">Container Image Layer</text></g><g stroke-linecap="round" transform="translate(803.2696533203125 136.724609375) rotate(0 266.013671875 32.720703125)"><path d="M16.36 0 C208.62 1.41, 402.01 2.37, 515.67 0 M16.36 0 C131.78 1.95, 246.77 1.92, 515.67 0 M515.67 0 C524.64 1.68, 532.68 3.5, 532.03 16.36 M515.67 0 C528.09 1.32, 530.34 3.51, 532.03 16.36 M532.03 16.36 C531.55 28.57, 532.77 42.29, 532.03 49.08 M532.03 16.36 C532.56 26.38, 532.53 37.9, 532.03 49.08 M532.03 49.08 C532.03 61.29, 526.15 64.8, 515.67 65.44 M532.03 49.08 C531.08 62.19, 525.79 66.65, 515.67 65.44 M515.67 65.44 C408.34 65.08, 302.03 63.98, 16.36 65.44 M515.67 65.44 C381.2 65.14, 247.41 65.1, 16.36 65.44 M16.36 65.44 C6.66 66.29, -0.21 59.5, 0 49.08 M16.36 65.44 C3.49 63.27, 1.8 60.17, 0 49.08 M0 49.08 C-1.19 37.54, -0.57 27.3, 0 16.36 M0 49.08 C-0.66 37.09, -0.85 24.55, 0 16.36 M0 16.36 C-0.41 4.97, 7.07 1.84, 16.36 0 M0 16.36 C0.93 6.34, 3.92 -0.08, 16.36 0" stroke="#1e1e1e" stroke-width="2" fill="none"></path></g><g transform="translate(1021.2133636474609 156.9453125) rotate(0 48.06996154785156 12.5)"><text x="48.06996154785156" y="0" font-family="Virgil, Segoe UI Emoji" font-size="20px" fill="#1e1e1e" text-anchor="middle" style="white-space: pre;" direction="ltr" dominant-baseline="text-before-edge">OverlayFS</text></g><g stroke-linecap="round" transform="translate(42.5548095703125 143.376953125) rotate(0 266.013671875 29.009765625)"><path d="M14.5 0 C181.95 0.2, 350.39 1.15, 517.52 0 M14.5 0 C164.08 -0.21, 314.1 -0.26, 517.52 0 M517.52 0 C527.3 -0.94, 530.98 2.93, 532.03 14.5 M517.52 0 C526.46 1.97, 534.09 3.27, 532.03 14.5 M532.03 14.5 C533.39 24.03, 531.64 34.85, 532.03 43.51 M532.03 14.5 C532 21.67, 532.78 26.83, 532.03 43.51 M532.03 43.51 C532.45 54.9, 528.62 56.27, 517.52 58.02 M532.03 43.51 C533.02 53.97, 526.96 59.1, 517.52 58.02 M517.52 58.02 C397.59 56.41, 277.54 56.96, 14.5 58.02 M517.52 58.02 C346.34 60.08, 175.26 59.93, 14.5 58.02 M14.5 58.02 C5.13 57.65, 0.55 52.87, 0 43.51 M14.5 58.02 C5.08 59.67, 1.47 53.97, 0 43.51 M0 43.51 C-0.39 34.37, 0.3 26.39, 0 14.5 M0 43.51 C-0.69 36.75, 1.01 28.53, 0 14.5 M0 14.5 C1.57 5.62, 3.44 1.45, 14.5 0 M0 14.5 C1.84 4.45, 4.56 2.02, 14.5 0" stroke="#1e1e1e" stroke-width="2" fill="none"></path></g><g transform="translate(196.91856384277344 159.88671875) rotate(0 111.64991760253906 12.5)"><text x="111.64991760253906" y="0" font-family="Virgil, Segoe UI Emoji" font-size="20px" fill="#1e1e1e" text-anchor="middle" style="white-space: pre;" direction="ltr" dominant-baseline="text-before-edge">Container Image Layer</text></g><g mask="url(#mask-O7C0yoNv8L7TQA2qz9veX)" stroke-linecap="round"><g transform="translate(789.6036376953125 166.06034976391197) rotate(0 -99.89505558659437 5.473012434476345)"><path d="M1.08 -0.76 C-32.16 1.06, -165.62 7.79, -198.9 9.83 M0.19 1.46 C-33.18 3.48, -166.22 9.45, -199.38 10.79" stroke="#1e1e1e" stroke-width="2" fill="none"></path></g><g transform="translate(789.6036376953125 166.06034976391197) rotate(0 -99.89505558659437 5.473012434476345)"><path d="M-171.66 -0.68 C-182.63 5.03, -192.84 9.52, -199.38 10.79 M-171.66 -0.68 C-181.02 3.87, -190.96 7.03, -199.38 10.79" stroke="#1e1e1e" stroke-width="2" fill="none"></path></g><g transform="translate(789.6036376953125 166.06034976391197) rotate(0 -99.89505558659437 5.473012434476345)"><path d="M-170.77 19.82 C-181.87 18.43, -192.39 15.81, -199.38 10.79 M-170.77 19.82 C-180.56 17.23, -190.8 13.25, -199.38 10.79" stroke="#1e1e1e" stroke-width="2" fill="none"></path></g></g><mask id="mask-O7C0yoNv8L7TQA2qz9veX"><rect x="0" y="0" fill="#fff" width="1089.3937488685012" height="277.00637463286466"></rect><rect x="669.6486074383079" y="159.03336219838832" fill="#000" width="40.11994934082031" height="25" opacity="1"></rect></mask><g transform="translate(669.6486074383079 159.03336219838832) rotate(0 20.80776140233513 12.043336744997646)"><text x="20.059974670410156" y="0" font-family="Virgil, Segoe UI Emoji" font-size="20px" fill="#1e1e1e" text-anchor="middle" style="white-space: pre;" direction="ltr" dominant-baseline="text-before-edge">refs</text></g><g mask="url(#mask-FKMS0myxlAtfPW4INNdUf)" stroke-linecap="round"><g transform="translate(791.1572013790576 152.38797721712604) rotate(0 -99.97015651182062 -25.765042931549374)"><path d="M-1 -0.8 C-34.35 -9.39, -167.45 -41.89, -200.66 -50.36 M0.68 1.4 C-32.24 -6.98, -164.68 -43.25, -198.33 -51.87" stroke="#1e1e1e" stroke-width="2" fill="none"></path></g><g transform="translate(791.1572013790576 152.38797721712604) rotate(0 -99.97015651182062 -25.765042931549374)"><path d="M-168.45 -54.54 C-177.37 -55.31, -181.7 -54.03, -198.33 -51.87 M-168.45 -54.54 C-177.66 -53.38, -186.43 -53.77, -198.33 -51.87" stroke="#1e1e1e" stroke-width="2" fill="none"></path></g><g transform="translate(791.1572013790576 152.38797721712604) rotate(0 -99.97015651182062 -25.765042931549374)"><path d="M-173.72 -34.71 C-181.49 -40.49, -184.48 -44.26, -198.33 -51.87 M-173.72 -34.71 C-181.31 -39.43, -188.53 -45.68, -198.33 -51.87" stroke="#1e1e1e" stroke-width="2" fill="none"></path></g></g><mask id="mask-FKMS0myxlAtfPW4INNdUf"><rect x="0" y="0" fill="#fff" width="1091.0975144026988" height="303.9180630802248"></rect><rect x="671.1270701968269" y="114.12293428557666" fill="#000" width="40.11994934082031" height="25" opacity="1"></rect></mask><g transform="translate(671.1270701968269 114.12293428557666) rotate(0 20.037257792158016 13.029808662701384)"><text x="20.059974670410156" y="0" font-family="Virgil, Segoe UI Emoji" font-size="20px" fill="#1e1e1e" text-anchor="middle" style="white-space: pre;" direction="ltr" dominant-baseline="text-before-edge">refs</text></g><g stroke-linecap="round" transform="translate(10 10) rotate(0 310.728515625 114.681640625)"><path d="M32 0 C212.02 0.87, 392.6 1.08, 589.46 0 M32 0 C214.85 0.01, 397.38 -0.24, 589.46 0 M589.46 0 C609.62 -1.08, 619.52 9.45, 621.46 32 M589.46 0 C611.37 -1.24, 622.86 9.13, 621.46 32 M621.46 32 C622.76 92.76, 620.99 151.99, 621.46 197.36 M621.46 32 C621.59 82.05, 622.4 131.13, 621.46 197.36 M621.46 197.36 C622.83 219.89, 610.23 230.63, 589.46 229.36 M621.46 197.36 C620.37 219, 612.55 230.51, 589.46 229.36 M589.46 229.36 C471.05 230.8, 351.69 229.62, 32 229.36 M589.46 229.36 C425.26 231.16, 260.82 230.79, 32 229.36 M32 229.36 C10.33 227.45, 0.33 219.91, 0 197.36 M32 229.36 C9.59 231.28, -2.18 216.43, 0 197.36 M0 197.36 C-1.09 149.63, 0.99 101.35, 0 32 M0 197.36 C0.1 133.19, 1.05 67.66, 0 32 M0 32 C1.84 8.87, 9.19 -0.45, 32 0 M0 32 C-0.55 12.75, 11.47 1.91, 32 0" stroke="#1e1e1e" stroke-width="2" fill="none"></path></g><g transform="translate(43.2578125 30.0703125) rotate(0 46.679962158203125 12.5)"><text x="0" y="0" font-family="Virgil, Segoe UI Emoji" font-size="20px" fill="#1e1e1e" text-anchor="start" style="white-space: pre;" direction="ltr" dominant-baseline="text-before-edge">Lower Dir</text></g><g stroke-linecap="round" transform="translate(15.868896484375 256.626953125) rotate(0 310.728515625 54.3671875)"><path d="M27.18 0 C184.95 0.87, 343.64 0.66, 594.27 0 M27.18 0 C146.03 -1.67, 265.06 -1.85, 594.27 0 M594.27 0 C610.85 -1.74, 622.63 10.01, 621.46 27.18 M594.27 0 C614.15 -1.18, 621.3 7.47, 621.46 27.18 M621.46 27.18 C621.23 42.51, 623.27 53.92, 621.46 81.55 M621.46 27.18 C622.45 46.78, 622.49 66.16, 621.46 81.55 M621.46 81.55 C619.64 100.8, 613.97 107.72, 594.27 108.73 M621.46 81.55 C622.54 101.8, 610.79 108.53, 594.27 108.73 M594.27 108.73 C411.11 110.33, 226.71 109.62, 27.18 108.73 M594.27 108.73 C399.51 109.4, 204.9 109.56, 27.18 108.73 M27.18 108.73 C9.3 109.01, 1.06 101.29, 0 81.55 M27.18 108.73 C8.39 107.56, -0.08 98.5, 0 81.55 M0 81.55 C-0.77 61.87, -0.25 40.95, 0 27.18 M0 81.55 C0.29 61.74, 0.28 40.62, 0 27.18 M0 27.18 C-1.46 8.02, 9.41 -1.22, 27.18 0 M0 27.18 C2.24 9.71, 9.68 -2.17, 27.18 0" stroke="#1e1e1e" stroke-width="2" fill="none"></path></g><g transform="translate(48.718505859375 273.59375) rotate(0 46.059959411621094 12.5)"><text x="0" y="0" font-family="Virgil, Segoe UI Emoji" font-size="20px" fill="#1e1e1e" text-anchor="start" style="white-space: pre;" direction="ltr" dominant-baseline="text-before-edge">Upper Dir</text></g><g mask="url(#mask-WZ1Gvf-d9OncqhjbN6JwZ)" stroke-linecap="round"><g transform="translate(793.0409031386419 172.1226456998201) rotate(0 -72.06699064976362 66.58955976983762)"><path d="M-0.75 0.34 C-24.44 22.43, -119.48 110.66, -143.24 132.69 M1.06 -0.53 C-22.62 21.72, -119.6 111.63, -143.71 133.97" stroke="#1e1e1e" stroke-width="2" fill="none"></path></g><g transform="translate(793.0409031386419 172.1226456998201) rotate(0 -72.06699064976362 66.58955976983762)"><path d="M-130.02 107.28 C-132.34 114.37, -136.63 119.98, -143.71 133.97 M-130.02 107.28 C-133.31 113.67, -137.59 121.2, -143.71 133.97" stroke="#1e1e1e" stroke-width="2" fill="none"></path></g><g transform="translate(793.0409031386419 172.1226456998201) rotate(0 -72.06699064976362 66.58955976983762)"><path d="M-116.06 122.33 C-121.37 126.13, -128.63 128.54, -143.71 133.97 M-116.06 122.33 C-122.85 124.92, -130.58 128.74, -143.71 133.97" stroke="#1e1e1e" stroke-width="2" fill="none"></path></g></g><mask id="mask-WZ1Gvf-d9OncqhjbN6JwZ"><rect x="0" y="0" fill="#fff" width="1037.174884438169" height="405.30176523949535"></rect><rect x="700.9139378184682" y="226.2122054696577" fill="#000" width="40.11994934082031" height="25" opacity="1"></rect></mask><g transform="translate(700.9139378184682 226.21220546965776) rotate(0 20.80246353549876 12.63000669525934)"><text x="20.059974670410156" y="0" font-family="Virgil, Segoe UI Emoji" font-size="20px" fill="#1e1e1e" text-anchor="middle" style="white-space: pre;" direction="ltr" dominant-baseline="text-before-edge">refs</text></g><g stroke-linecap="round" transform="translate(819.142333984375 332.111328125) rotate(0 266.013671875 32.720703125)"><path d="M16.36 0 C157.49 0.02, 299.2 0.44, 515.67 0 M16.36 0 C187.99 1.13, 360.46 0.72, 515.67 0 M515.67 0 C526.31 1.98, 531.32 7.41, 532.03 16.36 M515.67 0 C528.48 -1.22, 530.54 5.98, 532.03 16.36 M532.03 16.36 C531.7 23.18, 531.63 31.49, 532.03 49.08 M532.03 16.36 C532.43 25.62, 532.22 35.41, 532.03 49.08 M532.03 49.08 C533.89 61.27, 525.1 67.4, 515.67 65.44 M532.03 49.08 C531.2 58.12, 526.86 64.88, 515.67 65.44 M515.67 65.44 C325.03 67.96, 134.83 66.77, 16.36 65.44 M515.67 65.44 C373.06 64.76, 230.04 64.91, 16.36 65.44 M16.36 65.44 C5.85 63.56, 0.26 61.02, 0 49.08 M16.36 65.44 C7.37 65.61, -0.37 57.95, 0 49.08 M0 49.08 C-1.44 38.99, 0.65 30.28, 0 16.36 M0 49.08 C-0.86 38.19, -0.05 25.53, 0 16.36 M0 16.36 C-1.06 6.11, 5.19 1.67, 16.36 0 M0 16.36 C-0.86 3.75, 5.65 -2.21, 16.36 0" stroke="#1e1e1e" stroke-width="2" fill="none"></path></g><g transform="translate(997.7860794067383 352.33203125) rotate(0 87.36992645263672 12.5)"><text x="87.36992645263672" y="0" font-family="Virgil, Segoe UI Emoji" font-size="20px" fill="#1e1e1e" text-anchor="middle" style="white-space: pre;" direction="ltr" dominant-baseline="text-before-edge">Container Runtime</text></g><g mask="url(#mask-0sHx2N89UExqoTn0-VANi)" stroke-linecap="round"><g transform="translate(1089.6250132606042 326.23828125) rotate(0 -1.665705595260306 -59.609375)"><path d="M-0.68 -0.09 C-1.14 -19.88, -1.82 -98.56, -2.19 -118.22 M1.16 -1.18 C0.59 -21.34, -1.77 -100.05, -2.54 -119.82" stroke="#1e1e1e" stroke-width="2" fill="none"></path></g><g transform="translate(1089.6250132606042 326.23828125) rotate(0 -1.665705595260306 -59.609375)"><path d="M8.67 -91.99 C4.5 -99.83, 2.41 -110.72, -2.54 -119.82 M8.67 -91.99 C5.21 -102.99, 0.35 -114.63, -2.54 -119.82" stroke="#1e1e1e" stroke-width="2" fill="none"></path></g><g transform="translate(1089.6250132606042 326.23828125) rotate(0 -1.665705595260306 -59.609375)"><path d="M-11.84 -91.3 C-8.88 -99.27, -3.82 -110.39, -2.54 -119.82 M-11.84 -91.3 C-7.12 -102.71, -3.82 -114.63, -2.54 -119.82" stroke="#1e1e1e" stroke-width="2" fill="none"></path></g></g><mask id="mask-0sHx2N89UExqoTn0-VANi"><rect x="0" y="0" fill="#fff" width="1192.9564244511248" height="545.45703125"></rect><rect x="1049.9493436760863" y="254.12890625" fill="#000" width="76.01992797851562" height="25" opacity="1"></rect></mask><g transform="translate(1049.9493436760858 254.12890625) rotate(0 38.987555486746146 12.155489484760892)"><text x="38.00996398925781" y="0" font-family="Virgil, Segoe UI Emoji" font-size="20px" fill="#1e1e1e" text-anchor="middle" style="white-space: pre;" direction="ltr" dominant-baseline="text-before-edge">creates</text></g><g transform="translate(321.511474609375 283.0390625) rotate(0 133.59988403320312 25)"><text x="0" y="0" font-family="Virgil, Segoe UI Emoji" font-size="20px" fill="#e03131" text-anchor="start" style="white-space: pre;" direction="ltr" dominant-baseline="text-before-edge">Any file system changes at</text><text x="0" y="25" font-family="Virgil, Segoe UI Emoji" font-size="20px" fill="#e03131" text-anchor="start" style="white-space: pre;" direction="ltr" dominant-baseline="text-before-edge">runtime go in here</text></g><g transform="translate(1190.956787109375 230.5703125) rotate(0 209.95982360839844 25)"><text x="0" y="0" font-family="Virgil, Segoe UI Emoji" font-size="20px" fill="#e03131" text-anchor="start" style="white-space: pre;" direction="ltr" dominant-baseline="text-before-edge">Container is then executed with OverlayFS</text><text x="0" y="25" font-family="Virgil, Segoe UI Emoji" font-size="20px" fill="#e03131" text-anchor="start" style="white-space: pre;" direction="ltr" dominant-baseline="text-before-edge">set to root of mount NS</text></g></svg>