<svg version="1.1" xmlns="http://www.w3.org/2000/svg" viewBox="0 0 1482.2518973224799 572.5503614906751" width="2964.5037946449597" height="1145.1007229813501">
  <!-- svg-source:excalidraw -->
  
  <defs>
    <style class="style-fonts">
      @font-face {
        font-family: "Virgil";
        src: url("https://file%2B.vscode-resource.vscode-cdn.net/Users/patrick/.vscode-oss/extensions/pomdtr.excalidraw-editor-3.7.4-universal/public//dist/excalidraw-assets/Virgil.woff2");
      }
      @font-face {
        font-family: "Cascadia";
        src: url("https://file%2B.vscode-resource.vscode-cdn.net/Users/patrick/.vscode-oss/extensions/pomdtr.excalidraw-editor-3.7.4-universal/public//dist/excalidraw-assets/Cascadia.woff2");
      }
      @font-face {
        font-family: "Assistant";
        src: url("https://file%2B.vscode-resource.vscode-cdn.net/Users/patrick/.vscode-oss/extensions/pomdtr.excalidraw-editor-3.7.4-universal/public//dist/excalidraw-assets/Assistant-Regular.woff2");
      }
    </style>
    
  </defs>
  <rect x="0" y="0" width="1482.2518973224799" height="572.5503614906751" fill="#ffffff"></rect><g stroke-linecap="round" transform="translate(570.6876920040488 402.0009019483682) rotate(0 127.109375 38.779296875)"><path d="M19.39 0 C104.3 0.51, 187.74 -0.78, 234.83 0 M19.39 0 C71.65 -1.48, 123.15 -1.93, 234.83 0 M234.83 0 C246.05 -1.94, 252.31 6.99, 254.22 19.39 M234.83 0 C245.55 2.02, 252.34 8.75, 254.22 19.39 M254.22 19.39 C254.6 30.16, 254.88 37.04, 254.22 58.17 M254.22 19.39 C253.77 34.3, 254.19 48.02, 254.22 58.17 M254.22 58.17 C253.48 71.74, 249.33 76.89, 234.83 77.56 M254.22 58.17 C252.07 72.78, 249.62 79.11, 234.83 77.56 M234.83 77.56 C153.42 77.18, 74.16 80.18, 19.39 77.56 M234.83 77.56 C151.93 76.13, 70.59 76.06, 19.39 77.56 M19.39 77.56 C7.92 76.1, 1.09 72.87, 0 58.17 M19.39 77.56 C5.08 79.36, -1.25 71.36, 0 58.17 M0 58.17 C-0.45 42.01, -1.4 27.4, 0 19.39 M0 58.17 C-0.1 49.58, 0.72 40.29, 0 19.39 M0 19.39 C-1.14 5.58, 7.09 0.6, 19.39 0 M0 19.39 C2.02 5.91, 5.66 -2.15, 19.39 0" stroke="#1e1e1e" stroke-width="2" fill="none"></path></g><g transform="translate(597.0271695431113 428.2801988233682) rotate(0 100.7698974609375 12.5)"><text x="100.7698974609375" y="0" font-family="Virgil, Segoe UI Emoji" font-size="20px" fill="#1e1e1e" text-anchor="middle" style="white-space: pre;" direction="ltr" dominant-baseline="text-before-edge">sched_process_exec</text></g><g stroke-linecap="round" transform="translate(199.62122983054178 97.89046934215281) rotate(0 430.03245730755395 212.19574269553212)"><path d="M32 0 C292.29 0.75, 553.97 1.47, 828.06 0 M32 0 C256.84 -1.28, 480.98 -1.15, 828.06 0 M828.06 0 C850.5 0.59, 858.83 11.79, 860.06 32 M828.06 0 C848.48 -0.03, 860.35 10.23, 860.06 32 M860.06 32 C858.22 127.84, 859.87 221.19, 860.06 392.39 M860.06 32 C861.27 135.36, 860.28 239.54, 860.06 392.39 M860.06 392.39 C860.84 414.33, 850.88 424.6, 828.06 424.39 M860.06 392.39 C858.07 413.22, 851.17 423.48, 828.06 424.39 M828.06 424.39 C651.33 422, 475.12 421.6, 32 424.39 M828.06 424.39 C542.86 424.65, 258 424.75, 32 424.39 M32 424.39 C8.87 424.94, 0.5 413.52, 0 392.39 M32 424.39 C12.91 425.15, 0.72 413.37, 0 392.39 M0 392.39 C-0.53 310.47, 1.26 229.24, 0 32 M0 392.39 C-0.41 257.33, -1.37 121, 0 32 M0 32 C0.59 9.2, 11.71 -0.62, 32 0 M0 32 C1.37 10.06, 10.46 -0.8, 32 0" stroke="#1e1e1e" stroke-width="2" fill="none"></path></g><g transform="translate(235.49022743698242 114.51589885377257) rotate(0 27.559967041015625 12.5)"><text x="0" y="0" font-family="Virgil, Segoe UI Emoji" font-size="20px" fill="#1e1e1e" text-anchor="start" style="white-space: pre;" direction="ltr" dominant-baseline="text-before-edge">kvisor</text></g><g stroke-linecap="round" transform="translate(244.02644247945477 201.49171378014273) rotate(0 110.037109375 39.046875)"><path d="M19.52 0 C85.32 -2.65, 148.45 -2.14, 200.55 0 M19.52 0 C83.12 -0.96, 145.52 -1.53, 200.55 0 M200.55 0 C211.92 0.76, 218.53 7.27, 220.07 19.52 M200.55 0 C212.9 -1.56, 221.76 6.39, 220.07 19.52 M220.07 19.52 C221.22 31.02, 218.44 42.86, 220.07 58.57 M220.07 19.52 C220.57 29.53, 219.41 36.76, 220.07 58.57 M220.07 58.57 C222.03 69.93, 213.22 79.39, 200.55 78.09 M220.07 58.57 C218.4 72.72, 211.28 77.42, 200.55 78.09 M200.55 78.09 C147.72 78.62, 94.71 79.34, 19.52 78.09 M200.55 78.09 C129.02 79.53, 56.38 79.27, 19.52 78.09 M19.52 78.09 C8.06 77.14, -0.19 72.83, 0 58.57 M19.52 78.09 C6.02 78.43, 0.51 70, 0 58.57 M0 58.57 C1.31 42.31, 1.28 27.62, 0 19.52 M0 58.57 C0.41 45.18, -0.45 32.16, 0 19.52 M0 19.52 C-0.59 7.15, 7.8 -1.28, 19.52 0 M0 19.52 C-1.56 6.86, 4.59 -2.03, 19.52 0" stroke="#1e1e1e" stroke-width="2" fill="none"></path></g><g transform="translate(322.6535787099235 228.03858878014273) rotate(0 31.40997314453125 12.5)"><text x="31.40997314453125" y="0" font-family="Virgil, Segoe UI Emoji" font-size="20px" fill="#1e1e1e" text-anchor="middle" style="white-space: pre;" direction="ltr" dominant-baseline="text-before-edge">tracer</text></g><g stroke-linecap="round"><g transform="translate(11.275585875132037 352.6956068368719) rotate(0 541.1869517396617 -1.7093684033645786)"><path d="M-0.38 -0.26 C180.28 -0.82, 902.58 -3.88, 1083.01 -4.43 M1.62 -1.44 C182.26 -1.79, 902.44 -3.28, 1082.39 -3.42" stroke="#1e1e1e" stroke-width="2" fill="none"></path></g></g><mask></mask><g transform="translate(10.137034209481385 304.12603442982504) rotate(0 55.50995635986328 12.5)"><text x="0" y="0" font-family="Virgil, Segoe UI Emoji" font-size="20px" fill="#1e1e1e" text-anchor="start" style="white-space: pre;" direction="ltr" dominant-baseline="text-before-edge">User Space</text></g><g stroke-linecap="round"><g transform="translate(623.1992913188369 393.8602769483682) rotate(0 -85.51211275587963 -51.40693783411274)"><path d="M-0.78 0.79 C-29.2 -16.32, -141.66 -84.35, -169.93 -101.67 M1 0.16 C-27.52 -17.34, -141.66 -86.16, -170.31 -103.19" stroke="#1e1e1e" stroke-width="2" fill="none"></path></g><g transform="translate(623.1992913188369 393.8602769483682) rotate(0 -85.51211275587963 -51.40693783411274)"><path d="M-140.86 -97.49 C-149.76 -97.84, -159.34 -100.65, -170.31 -103.19 M-140.86 -97.49 C-149.2 -99.81, -157.08 -100.27, -170.31 -103.19" stroke="#1e1e1e" stroke-width="2" fill="none"></path></g><g transform="translate(623.1992913188369 393.8602769483682) rotate(0 -85.51211275587963 -51.40693783411274)"><path d="M-151.41 -79.89 C-156.81 -86.25, -162.74 -95.14, -170.31 -103.19 M-151.41 -79.89 C-156.9 -86.92, -161.89 -92.19, -170.31 -103.19" stroke="#1e1e1e" stroke-width="2" fill="none"></path></g></g><mask></mask><g transform="translate(267.06414902165466 373.8758413181474) rotate(0 142.02987670898438 12.5)"><text x="0" y="0" font-family="Virgil, Segoe UI Emoji" font-size="20px" fill="#1971c2" text-anchor="start" style="white-space: pre;" direction="ltr" dominant-baseline="text-before-edge">Sends events via PerfBuffer</text></g><g stroke-linecap="round" transform="translate(581.5694112294548 116.01905753014273) rotate(0 110.037109375 39.046875)"><path d="M19.52 0 C63.58 -1.52, 106.11 -2.45, 200.55 0 M19.52 0 C66.01 0.17, 114.99 0.22, 200.55 0 M200.55 0 C213.06 1.46, 218.15 7.27, 220.07 19.52 M200.55 0 C212.99 1.83, 221.26 6.9, 220.07 19.52 M220.07 19.52 C221.95 28.79, 218.51 37.47, 220.07 58.57 M220.07 19.52 C220.32 34.81, 221.1 48.43, 220.07 58.57 M220.07 58.57 C220.65 71.9, 212.34 79.1, 200.55 78.09 M220.07 58.57 C219.32 71.82, 214.78 76.31, 200.55 78.09 M200.55 78.09 C144.38 75.31, 88.63 77.08, 19.52 78.09 M200.55 78.09 C157.3 76.84, 116.58 75.8, 19.52 78.09 M19.52 78.09 C5.07 78.73, 0.92 73.46, 0 58.57 M19.52 78.09 C5.65 77.79, -1.23 70.25, 0 58.57 M0 58.57 C-0.09 46.39, 0.2 34.8, 0 19.52 M0 58.57 C-0.93 48.43, 0.61 38.42, 0 19.52 M0 19.52 C1.75 7.46, 6.76 0.88, 19.52 0 M0 19.52 C0.13 8.79, 6.93 -1.28, 19.52 0" stroke="#1e1e1e" stroke-width="2" fill="none"></path></g><g transform="translate(591.1866139882438 130.06593253014273) rotate(0 100.41990661621094 25)"><text x="100.41990661621094" y="0" font-family="Virgil, Segoe UI Emoji" font-size="20px" fill="#1e1e1e" text-anchor="middle" style="white-space: pre;" direction="ltr" dominant-baseline="text-before-edge">signature detection </text><text x="100.41990661621094" y="25" font-family="Virgil, Segoe UI Emoji" font-size="20px" fill="#1e1e1e" text-anchor="middle" style="white-space: pre;" direction="ltr" dominant-baseline="text-before-edge">engine</text></g><g stroke-linecap="round" transform="translate(821.0128657208422 235.9488223103184) rotate(0 110.037109375 39.046875)"><path d="M19.52 0 C69.54 0.38, 122.5 1.65, 200.55 0 M19.52 0 C66.17 1.72, 112.48 1.14, 200.55 0 M200.55 0 C213.77 1.42, 221.48 7.07, 220.07 19.52 M200.55 0 C211.84 1.17, 221.33 6.19, 220.07 19.52 M220.07 19.52 C218.97 34.03, 220.99 48.2, 220.07 58.57 M220.07 19.52 C220.46 33.83, 220.31 46.81, 220.07 58.57 M220.07 58.57 C218.29 72.9, 213.44 76.53, 200.55 78.09 M220.07 58.57 C218.6 73.57, 214.32 79.77, 200.55 78.09 M200.55 78.09 C134.03 81.44, 69.68 79.37, 19.52 78.09 M200.55 78.09 C144.13 76.68, 89.38 75.42, 19.52 78.09 M19.52 78.09 C4.96 76.73, 0.03 71.46, 0 58.57 M19.52 78.09 C7.03 76.91, -1.21 71.06, 0 58.57 M0 58.57 C-1.15 42.38, 0.88 28.91, 0 19.52 M0 58.57 C-0.74 47.38, -0.6 35.73, 0 19.52 M0 19.52 C1.19 7.11, 4.87 -1.72, 19.52 0 M0 19.52 C-2.24 8.47, 6.39 2.02, 19.52 0" stroke="#1e1e1e" stroke-width="2" fill="none"></path></g><g transform="translate(858.2800471173266 262.4956973103184) rotate(0 72.76992797851562 12.5)"><text x="72.76992797851562" y="0" font-family="Virgil, Segoe UI Emoji" font-size="20px" fill="#1e1e1e" text-anchor="middle" style="white-space: pre;" direction="ltr" dominant-baseline="text-before-edge">event exporter</text></g><g stroke-linecap="round"><g transform="translate(476.71512754772573 216.07374503014273) rotate(0 47.66015625 -27.3671875)"><path d="M-0.5 1.06 C15.3 -8.18, 78.82 -44.87, 94.66 -54.28 M1.44 0.57 C17.65 -8.52, 81.1 -47, 97.02 -56.17" stroke="#1e1e1e" stroke-width="2" fill="none"></path></g><g transform="translate(476.71512754772573 216.07374503014273) rotate(0 47.66015625 -27.3671875)"><path d="M78 -32.97 C85.01 -40.66, 89.47 -47.54, 97.02 -56.17 M78 -32.97 C82.82 -38.48, 87.19 -43.67, 97.02 -56.17" stroke="#1e1e1e" stroke-width="2" fill="none"></path></g><g transform="translate(476.71512754772573 216.07374503014273) rotate(0 47.66015625 -27.3671875)"><path d="M67.54 -50.62 C77.73 -53.2, 85.19 -55, 97.02 -56.17 M67.54 -50.62 C75.08 -51.72, 82.01 -52.6, 97.02 -56.17" stroke="#1e1e1e" stroke-width="2" fill="none"></path></g></g><mask></mask><g stroke-linecap="round"><g transform="translate(479.8911180106104 240.9674532007861) rotate(0 164.32133662069373 18.090956528086707)"><path d="M0.35 0.75 C54.86 6.95, 273.02 31.44, 327.82 37.31 M-0.92 0.09 C53.9 5.98, 275.17 29.6, 330.1 35.78" stroke="#1e1e1e" stroke-width="2" fill="none"></path></g><g transform="translate(479.8911180106104 240.9674532007861) rotate(0 164.32133662069373 18.090956528086707)"><path d="M300.96 42.92 C312.79 38.87, 324.03 38.46, 330.1 35.78 M300.96 42.92 C309.39 40.93, 317.66 39.06, 330.1 35.78" stroke="#1e1e1e" stroke-width="2" fill="none"></path></g><g transform="translate(479.8911180106104 240.9674532007861) rotate(0 164.32133662069373 18.090956528086707)"><path d="M303.19 22.52 C314.23 25.89, 324.66 32.91, 330.1 35.78 M303.19 22.52 C311.12 26.29, 318.76 30.2, 330.1 35.78" stroke="#1e1e1e" stroke-width="2" fill="none"></path></g></g><mask></mask><g stroke-linecap="round"><g transform="translate(813.2739305106104 147.74093626445762) rotate(0 49.7522029130497 37.293396147930395)"><path d="M0.76 -0.65 C17.36 11.46, 84.14 61.33, 100.6 73.74 M-0.3 1.62 C16.16 14.38, 83.71 62.65, 100.23 74.83" stroke="#1e1e1e" stroke-width="2" fill="none"></path></g><g transform="translate(813.2739305106104 147.74093626445762) rotate(0 49.7522029130497 37.293396147930395)"><path d="M71.39 66.59 C81.42 71.39, 92.12 72.8, 100.23 74.83 M71.39 66.59 C78.75 69.57, 85.12 71.26, 100.23 74.83" stroke="#1e1e1e" stroke-width="2" fill="none"></path></g><g transform="translate(813.2739305106104 147.74093626445762) rotate(0 49.7522029130497 37.293396147930395)"><path d="M83.43 49.97 C89 61.21, 95.1 68.98, 100.23 74.83 M83.43 49.97 C88.04 56.76, 91.59 62.33, 100.23 74.83" stroke="#1e1e1e" stroke-width="2" fill="none"></path></g></g><mask></mask><g stroke-linecap="round" transform="translate(1252.1776785724799 53.75449656998734) rotate(0 110.037109375 39.046875)"><path d="M19.52 0 C64.51 2.53, 106.13 1.38, 200.55 0 M19.52 0 C70.28 -0.21, 122.86 0.47, 200.55 0 M200.55 0 C212.64 0.7, 218.48 8.25, 220.07 19.52 M200.55 0 C214.05 -0.61, 219.42 8.18, 220.07 19.52 M220.07 19.52 C219.01 29.73, 219 38.06, 220.07 58.57 M220.07 19.52 C220.75 33.98, 220.69 46.76, 220.07 58.57 M220.07 58.57 C221.24 70.65, 213.05 78.85, 200.55 78.09 M220.07 58.57 C220.5 70.73, 215.66 78.44, 200.55 78.09 M200.55 78.09 C138.49 79.14, 71.73 81.45, 19.52 78.09 M200.55 78.09 C150.42 78.3, 99.53 78.51, 19.52 78.09 M19.52 78.09 C7.6 76.24, -0.72 69.65, 0 58.57 M19.52 78.09 C4.47 77.96, 1.82 72.22, 0 58.57 M0 58.57 C-1.75 48.43, 0.59 34.92, 0 19.52 M0 58.57 C-0.01 45.43, 0.78 31.35, 0 19.52 M0 19.52 C-0.44 6.26, 7.05 -1.45, 19.52 0 M0 19.52 C-2.2 5.35, 8.15 0.34, 19.52 0" stroke="#1e1e1e" stroke-width="2" fill="none"></path></g><g transform="translate(1277.874845015351 80.30137156998734) rotate(0 84.3399429321289 12.5)"><text x="84.3399429321289" y="0" font-family="Virgil, Segoe UI Emoji" font-size="20px" fill="#1e1e1e" text-anchor="middle" style="white-space: pre;" direction="ltr" dominant-baseline="text-before-edge">CAST.AI backend</text></g><g mask="url(#mask-I7Fd6SNGRc42sty27O2D2)" stroke-linecap="round"><g transform="translate(1054.0069409282357 238.4211179659892) rotate(0 94.92201578121012 -65.11233281951907)"><path d="M-0.73 -0.51 C30.89 -22.03, 157.58 -107.86, 189.35 -129.43 M1.09 -1.82 C32.54 -23.66, 156.8 -110.04, 188.15 -131.14" stroke="#1e1e1e" stroke-width="2" fill="none"></path></g><g transform="translate(1054.0069409282357 238.4211179659892) rotate(0 94.92201578121012 -65.11233281951907)"><path d="M170.7 -106.73 C174.58 -113.98, 181.42 -119.63, 188.15 -131.14 M170.7 -106.73 C175.47 -113.95, 182.86 -122.11, 188.15 -131.14" stroke="#1e1e1e" stroke-width="2" fill="none"></path></g><g transform="translate(1054.0069409282357 238.4211179659892) rotate(0 94.92201578121012 -65.11233281951907)"><path d="M159.09 -123.66 C166.04 -126.3, 175.99 -127.43, 188.15 -131.14 M159.09 -123.66 C167.64 -125.46, 178.81 -128.12, 188.15 -131.14" stroke="#1e1e1e" stroke-width="2" fill="none"></path></g></g><mask id="mask-I7Fd6SNGRc42sty27O2D2"><rect x="0" y="0" fill="#fff" width="1343.850972490656" height="468.6457836050273"></rect><rect x="1111.9890000444066" y="160.80878514647014" fill="#000" width="73.87991333007812" height="25" opacity="1"></rect></mask><g transform="translate(1111.9890000444066 160.80878514647017) rotate(0 36.32863601855934 11.787707094252085)"><text x="36.93995666503906" y="0" font-family="Virgil, Segoe UI Emoji" font-size="20px" fill="#1e1e1e" text-anchor="middle" style="white-space: pre;" direction="ltr" dominant-baseline="text-before-edge">exports</text></g><g stroke-linecap="round" transform="translate(148.96100393643133 10) rotate(0 465.95141837323774 276.27518074533754)"><path d="M32 0 C306.2 1.06, 581.37 0.29, 899.9 0 M32 0 C369.15 -2.82, 706.05 -2.88, 899.9 0 M899.9 0 C922.84 -0.86, 930.25 12.6, 931.9 32 M899.9 0 C919.42 -0.01, 929.96 10.04, 931.9 32 M931.9 32 C932.63 139.21, 932.38 244.88, 931.9 520.55 M931.9 32 C933.21 196.8, 933.07 360.73, 931.9 520.55 M931.9 520.55 C930.26 540.74, 922.44 552.48, 899.9 552.55 M931.9 520.55 C932.65 541.02, 921.68 554.42, 899.9 552.55 M899.9 552.55 C563.83 551.58, 228.67 550.84, 32 552.55 M899.9 552.55 C578.05 554.12, 256.33 553.62, 32 552.55 M32 552.55 C11.85 553.52, -1.19 542.74, 0 520.55 M32 552.55 C9.66 553.06, -1.22 542.16, 0 520.55 M0 520.55 C0.54 360.94, 1.4 201.6, 0 32 M0 520.55 C-1.24 393.49, -1.54 267.35, 0 32 M0 32 C-1.95 8.96, 11.33 1.09, 32 0 M0 32 C0.2 12.04, 8.9 2.17, 32 0" stroke="#1e1e1e" stroke-width="2" fill="none"></path></g><g transform="translate(10 372.9833445303941) rotate(0 61.83995056152344 12.5)"><text x="0" y="0" font-family="Virgil, Segoe UI Emoji" font-size="20px" fill="#1e1e1e" text-anchor="start" style="white-space: pre;" direction="ltr" dominant-baseline="text-before-edge">Kernel Space</text></g><g transform="translate(181.70549674647225 36.71378139875685) rotate(0 81.48992156982422 12.5)"><text x="0" y="0" font-family="Virgil, Segoe UI Emoji" font-size="20px" fill="#1e1e1e" text-anchor="start" style="white-space: pre;" direction="ltr" dominant-baseline="text-before-edge">Kubernetes Node</text></g><g transform="translate(610.9667972905839 38.11535426357247) rotate(0 202.01982116699213 25)"><text x="0" y="0" font-family="Virgil, Segoe UI Emoji" font-size="20px" fill="#1971c2" text-anchor="start" style="white-space: pre;" direction="ltr" dominant-baseline="text-before-edge">Anomaly detection for high volume events</text><text x="0" y="25" font-family="Virgil, Segoe UI Emoji" font-size="20px" fill="#1971c2" text-anchor="start" style="white-space: pre;" direction="ltr" dominant-baseline="text-before-edge">(e.g. reverse shell)</text></g></svg>