<svg version="1.1" xmlns="http://www.w3.org/2000/svg" viewBox="0 0 713.19921875 365.44140625" width="713.19921875" height="365.44140625">
  <!-- svg-source:excalidraw -->
  
  <defs>
    <style class="style-fonts">
      @font-face {
        font-family: "Virgil";
        src: url("https://file%2B.vscode-resource.vscode-cdn.net/Users/patrick/.vscode-oss/extensions/pomdtr.excalidraw-editor-3.7.4-universal/public//dist/excalidraw-assets/Virgil.woff2");
      }
      @font-face {
        font-family: "Cascadia";
        src: url("https://file%2B.vscode-resource.vscode-cdn.net/Users/patrick/.vscode-oss/extensions/pomdtr.excalidraw-editor-3.7.4-universal/public//dist/excalidraw-assets/Cascadia.woff2");
      }
      @font-face {
        font-family: "Assistant";
        src: url("https://file%2B.vscode-resource.vscode-cdn.net/Users/patrick/.vscode-oss/extensions/pomdtr.excalidraw-editor-3.7.4-universal/public//dist/excalidraw-assets/Assistant-Regular.woff2");
      }
    </style>
    
  </defs>
  <rect x="0" y="0" width="713.19921875" height="365.44140625" fill="#ffffff"></rect><g stroke-linecap="round" transform="translate(21.98828125 22.01953125) rotate(0 82.48046875 36.638671875)"><path d="M18.32 0 C63.69 1.7, 113.77 0.6, 146.64 0 M18.32 0 C53.72 0.53, 87.94 1.14, 146.64 0 M146.64 0 C158.6 0.65, 163.05 5.36, 164.96 18.32 M146.64 0 C160.67 0.96, 167.02 6.96, 164.96 18.32 M164.96 18.32 C165.07 31.98, 164.82 43.48, 164.96 54.96 M164.96 18.32 C164.84 31.72, 164.93 42.74, 164.96 54.96 M164.96 54.96 C163.5 65.51, 159.58 72.98, 146.64 73.28 M164.96 54.96 C163.19 66.35, 159.2 72.07, 146.64 73.28 M146.64 73.28 C116.28 74.7, 87.98 73.75, 18.32 73.28 M146.64 73.28 C112.1 73.66, 78.11 73.71, 18.32 73.28 M18.32 73.28 C7.94 73.21, 0.62 69.01, 0 54.96 M18.32 73.28 C4.97 71.03, 1.78 69.42, 0 54.96 M0 54.96 C-0.75 39.85, -0.52 25.37, 0 18.32 M0 54.96 C1.19 45.5, -0.51 36.58, 0 18.32 M0 18.32 C0.07 6.57, 5.54 1, 18.32 0 M0 18.32 C1.3 5.81, 6.87 -1.57, 18.32 0" stroke="#1e1e1e" stroke-width="2" fill="none"></path></g><g transform="translate(53.091796875 46.158203125) rotate(0 51.376953125 12.5)"><text x="51.376953125" y="0" font-family="Virgil, Segoe UI Emoji" font-size="20px" fill="#1e1e1e" text-anchor="middle" style="white-space: pre;" direction="ltr" dominant-baseline="text-before-edge">Source Code</text></g><g stroke-linecap="round" transform="translate(341.1484375 79.69140625) rotate(0 82.48046875 36.638671875)"><path d="M18.32 0 C60.12 0.47, 101.45 0.92, 146.64 0 M18.32 0 C50.97 0.12, 82.91 -0.58, 146.64 0 M146.64 0 C160.43 0.84, 166.75 6.85, 164.96 18.32 M146.64 0 C160.28 2.16, 165.35 5.84, 164.96 18.32 M164.96 18.32 C165.68 29.2, 163.83 41.8, 164.96 54.96 M164.96 18.32 C164.28 31.86, 165.37 46.9, 164.96 54.96 M164.96 54.96 C163.42 66.46, 159.16 72.23, 146.64 73.28 M164.96 54.96 C163.49 66.19, 160.12 73.19, 146.64 73.28 M146.64 73.28 C102.89 73.48, 61.5 72.59, 18.32 73.28 M146.64 73.28 C112.69 72.94, 77.21 73.89, 18.32 73.28 M18.32 73.28 C5.12 71.33, 1.55 69.12, 0 54.96 M18.32 73.28 C8.03 73.88, 0.82 66.42, 0 54.96 M0 54.96 C-0.93 44.38, 1.02 38.68, 0 18.32 M0 54.96 C0.32 45.34, 0.01 35.76, 0 18.32 M0 18.32 C1.13 5.85, 6.77 -1.36, 18.32 0 M0 18.32 C-0.66 6.32, 5.81 0.57, 18.32 0" stroke="#1e1e1e" stroke-width="2" fill="none"></path></g><g transform="translate(380.7089309692383 103.830078125) rotate(0 42.91997528076172 12.5)"><text x="42.91997528076172" y="0" font-family="Virgil, Segoe UI Emoji" font-size="20px" fill="#1e1e1e" text-anchor="middle" style="white-space: pre;" direction="ltr" dominant-baseline="text-before-edge">eBPF VM</text></g><g stroke-linecap="round" transform="translate(10 260.662109375) rotate(0 82.48046875 36.638671875)"><path d="M18.32 0 C56.85 -1.54, 97.48 -0.64, 146.64 0 M18.32 0 C61.8 0.9, 104.61 0.85, 146.64 0 M146.64 0 C160.1 1.88, 165.3 5.87, 164.96 18.32 M146.64 0 C159.31 -0.56, 163.38 7.04, 164.96 18.32 M164.96 18.32 C166.61 28.04, 163.72 35.82, 164.96 54.96 M164.96 18.32 C164.33 25.92, 165.25 33.7, 164.96 54.96 M164.96 54.96 C163.68 66.32, 159.95 73.2, 146.64 73.28 M164.96 54.96 C165.79 69.37, 158.59 72.52, 146.64 73.28 M146.64 73.28 C105.34 72.95, 64.69 74.76, 18.32 73.28 M146.64 73.28 C108.11 73.48, 71.34 75.43, 18.32 73.28 M18.32 73.28 C7.77 73.8, 0.71 66.52, 0 54.96 M18.32 73.28 C4.89 72.79, -1.72 66.01, 0 54.96 M0 54.96 C-0.8 45.18, -0.33 38.63, 0 18.32 M0 54.96 C0.67 42.98, 0.43 30.58, 0 18.32 M0 18.32 C-0.58 6.29, 5.85 0.49, 18.32 0 M0 18.32 C-0.19 4.11, 7.06 -0.24, 18.32 0" stroke="#1e1e1e" stroke-width="2" fill="none"></path></g><g transform="translate(52.4853515625 284.80078125) rotate(0 39.9951171875 12.5)"><text x="39.9951171875" y="0" font-family="Virgil, Segoe UI Emoji" font-size="20px" fill="#1e1e1e" text-anchor="middle" style="white-space: pre;" direction="ltr" dominant-baseline="text-before-edge">ByteCode</text></g><g mask="url(#mask-Mdvwlp7_F_HWSj4daoqG8)" stroke-linecap="round"><g transform="translate(100.37560568617982 96.296875) rotate(0 -1.0820364392978945 77.658203125)"><path d="M-0.15 0.39 C-0.59 26.17, -3.13 128.96, -3.31 154.87 M-1.69 -0.45 C-1.72 25.48, -1.23 130.47, -1.2 156.17" stroke="#1e1e1e" stroke-width="2" fill="none"></path></g><g transform="translate(100.37560568617982 96.296875) rotate(0 -1.0820364392978945 77.658203125)"><path d="M-11.55 128.01 C-8.34 132.93, -7.24 143.24, -1.2 156.17 M-11.55 128.01 C-7.14 138.54, -4.05 147.1, -1.2 156.17" stroke="#1e1e1e" stroke-width="2" fill="none"></path></g><g transform="translate(100.37560568617982 96.296875) rotate(0 -1.0820364392978945 77.658203125)"><path d="M8.97 127.94 C7.21 132.86, 3.34 143.18, -1.2 156.17 M8.97 127.94 C6.37 138.57, 2.44 147.16, -1.2 156.17" stroke="#1e1e1e" stroke-width="2" fill="none"></path></g></g><mask id="mask-Mdvwlp7_F_HWSj4daoqG8"><rect x="0" y="0" fill="#fff" width="202.5396785647756" height="351.61328125"></rect><rect x="45.563626925104586" y="161.455078125" fill="#000" width="107.45988464355469" height="25" opacity="1"></rect></mask><g transform="translate(45.563626925104586 161.455078125) rotate(0 53.081378406286234 12.702044529533026)"><text x="53.729942321777344" y="0" font-family="Virgil, Segoe UI Emoji" font-size="20px" fill="#1e1e1e" text-anchor="middle" style="white-space: pre;" direction="ltr" dominant-baseline="text-before-edge">compiles to</text></g><g mask="url(#mask-oSLdD-jni0PmFlUiSC9n8)" stroke-linecap="round"><g transform="translate(184.27734375 281.4039440948818) rotate(0 74.306640625 -65.04454033165598)"><path d="M-0.19 -0.31 C24.75 -21.98, 124.79 -107.44, 149.39 -129.15 M-1.76 -1.52 C23.12 -23.59, 123.61 -109.45, 148.85 -130.78" stroke="#1e1e1e" stroke-width="2" fill="none"></path></g><g transform="translate(184.27734375 281.4039440948818) rotate(0 74.306640625 -65.04454033165598)"><path d="M134.03 -104.7 C137.44 -110.63, 143.64 -121.16, 148.85 -130.78 M134.03 -104.7 C137.7 -111.97, 142.48 -118.62, 148.85 -130.78" stroke="#1e1e1e" stroke-width="2" fill="none"></path></g><g transform="translate(184.27734375 281.4039440948818) rotate(0 74.306640625 -65.04454033165598)"><path d="M120.73 -120.33 C127.95 -121.89, 137.85 -128.08, 148.85 -130.78 M120.73 -120.33 C127.79 -123.66, 136 -126.28, 148.85 -130.78" stroke="#1e1e1e" stroke-width="2" fill="none"></path></g></g><mask id="mask-oSLdD-jni0PmFlUiSC9n8"><rect x="0" y="0" fill="#fff" width="432.890625" height="511.49302475819377"></rect><rect x="223.29401397705078" y="203.85940376322583" fill="#000" width="70.57994079589844" height="25" opacity="1"></rect></mask><g transform="translate(223.29401397705078 203.85940376322583) rotate(0 34.8004033286916 11.997365818093556)"><text x="35.28997039794922" y="0" font-family="Virgil, Segoe UI Emoji" font-size="20px" fill="#343a40" text-anchor="middle" style="white-space: pre;" direction="ltr" dominant-baseline="text-before-edge">runs on</text></g><g stroke-linecap="round" transform="translate(268.0859375 10) rotate(0 217.556640625 172.720703125)"><path d="M32 0 C177.73 -1.21, 321 -1.18, 403.11 0 M403.11 0 C423.96 -1.37, 435.92 9.84, 435.11 32 M435.11 32 C435.36 100.96, 434.07 170.26, 435.11 313.44 M435.11 313.44 C435.84 334.48, 422.91 344.73, 403.11 345.44 M403.11 345.44 C285.68 344.66, 169.24 344.42, 32 345.44 M32 345.44 C12.58 345.21, -0.66 335.12, 0 313.44 M0 313.44 C0.59 213.96, 1.98 115.15, 0 32 M0 32 C0.62 12.5, 9.68 -1.95, 32 0" stroke="#1e1e1e" stroke-width="2.5" fill="none" stroke-dasharray="8 10"></path></g><g transform="translate(305.16796875 31.68359375) rotate(0 57.81995391845703 12.5)"><text x="0" y="0" font-family="Virgil, Segoe UI Emoji" font-size="20px" fill="#1e1e1e" text-anchor="start" style="white-space: pre;" direction="ltr" dominant-baseline="text-before-edge">Linux Kernel</text></g><g stroke-linecap="round" transform="translate(467.005859375 255.7509765625) rotate(0 82.48046875 36.638671875)"><path d="M18.32 0 C45.7 -1.15, 69.93 -1.03, 146.64 0 M18.32 0 C67.47 0.57, 118.47 1.79, 146.64 0 M146.64 0 C159.06 -1.14, 165.99 6.06, 164.96 18.32 M146.64 0 C159.09 1.41, 162.89 4.94, 164.96 18.32 M164.96 18.32 C166.01 27.18, 163.42 32.56, 164.96 54.96 M164.96 18.32 C165.03 27.17, 165.61 34.15, 164.96 54.96 M164.96 54.96 C166.75 67.29, 158.53 72.62, 146.64 73.28 M164.96 54.96 C163.12 67.34, 156.64 74.5, 146.64 73.28 M146.64 73.28 C107.16 72.03, 64.95 72.42, 18.32 73.28 M146.64 73.28 C112.2 72.07, 76.95 71.49, 18.32 73.28 M18.32 73.28 C5.48 71.56, -1.3 68.93, 0 54.96 M18.32 73.28 C5.52 73.31, 1.25 66.4, 0 54.96 M0 54.96 C-1.13 40.66, 1.19 29.64, 0 18.32 M0 54.96 C-0.4 42.79, 1.26 31, 0 18.32 M0 18.32 C-1.4 6.61, 7.33 1.53, 18.32 0 M0 18.32 C1.43 6.38, 4.74 2.23, 18.32 0" stroke="#1e1e1e" stroke-width="2" fill="none"></path></g><g transform="translate(476.2163848876953 267.3896484375) rotate(0 73.26994323730469 25)"><text x="73.26994323730469" y="0" font-family="Virgil, Segoe UI Emoji" font-size="20px" fill="#1e1e1e" text-anchor="middle" style="white-space: pre;" direction="ltr" dominant-baseline="text-before-edge">Native Machine</text><text x="73.26994323730469" y="25" font-family="Virgil, Segoe UI Emoji" font-size="20px" fill="#1e1e1e" text-anchor="middle" style="white-space: pre;" direction="ltr" dominant-baseline="text-before-edge">Code</text></g><g mask="url(#mask-Y3MJQh4uZgyDlZPcWSuJ_)" stroke-linecap="round"><g transform="translate(447.63354159474784 156.1787109375) rotate(0 30.61986051158607 44.056640625)"><path d="M-1.04 -0.96 C9.41 13.56, 51.47 72.92, 62.04 87.67" stroke="#1e1e1e" stroke-width="2.5" fill="none" stroke-dasharray="8 10"></path></g><g transform="translate(447.63354159474784 156.1787109375) rotate(0 30.61986051158607 44.056640625)"><path d="M37.33 70.66 C41.96 76.43, 48.96 81.22, 62.04 87.67" stroke="#1e1e1e" stroke-width="2.5" fill="none"></path></g><g transform="translate(447.63354159474784 156.1787109375) rotate(0 30.61986051158607 44.056640625)"><path d="M54.04 58.75 C54.57 67.35, 57.41 75.1, 62.04 87.67" stroke="#1e1e1e" stroke-width="2.5" fill="none"></path></g></g><mask id="mask-Y3MJQh4uZgyDlZPcWSuJ_"><rect x="0" y="0" fill="#fff" width="608.87326261792" height="344.2919921875"></rect><rect x="394.6934732122909" y="187.7353515625" fill="#000" width="167.11985778808594" height="25" opacity="1"></rect></mask><g transform="translate(394.6934732122909 187.7353515625) rotate(0 83.4406377922744 11.799226527288539)"><text x="83.55992889404297" y="0" font-family="Virgil, Segoe UI Emoji" font-size="20px" fill="#1e1e1e" text-anchor="middle" style="white-space: pre;" direction="ltr" dominant-baseline="text-before-edge">JIT compiles to </text></g></svg>